HIERARCHY
ROOT Hips
{
	OFFSET -3.958830 18.904000 13.208200
	CHANNELS 6 Xposition Yposition Zposition Zrotation Yrotation Xrotation 
	JOINT LHipJoint
	{
		OFFSET 0.000000 0.000000 0.000000
		CHANNELS 3 Zrotation Yrotation Xrotation
		JOINT LeftUpLeg
		{
			OFFSET 1.800000 -1.400000 0.085000
			CHANNELS 3 Zrotation Yrotation Xrotation
			JOINT LeftLeg
			{
				OFFSET 2.215000 -6.000000 0.000000
				CHANNELS 3 Zrotation Yrotation Xrotation
				JOINT LeftFoot
				{
					OFFSET 2.500000 -6.900000 0.000000
					CHANNELS 3 Zrotation Yrotation Xrotation
					JOINT LeftToeBase
					{
						OFFSET 0.200000 -0.500000 1.950000
						CHANNELS 3 Zrotation Yrotation Xrotation
						End Site
						{
							OFFSET 0.000000 0.000000 0.000000
						}
					}
				}
			}
		}
	}
	JOINT RHipJoint
	{
		OFFSET 0.000000 0.000000 0.000000
		CHANNELS 3 Zrotation Yrotation Xrotation
		JOINT RightUpLeg
		{
			OFFSET -1.800000 -1.400000 0.085000
			CHANNELS 3 Zrotation Yrotation Xrotation
			JOINT RightLeg
			{
				OFFSET -2.215000 -6.000000 0.000000
				CHANNELS 3 Zrotation Yrotation Xrotation
				JOINT RightFoot
				{
					OFFSET -2.500000 -6.900000 0.000000
					CHANNELS 3 Zrotation Yrotation Xrotation
					JOINT RightToeBase
					{
						OFFSET -0.200000 -0.500000 1.950000
						CHANNELS 3 Zrotation Yrotation Xrotation
						End Site
						{
							OFFSET 0.000000 0.000000 0.000000
						}
					}
				}
			}
		}
	}
	JOINT LowerBack
	{
		OFFSET 0.000000 0.000000 0.000000
		CHANNELS 3 Zrotation Yrotation Xrotation
		JOINT Spine
		{
			OFFSET -0.087000 1.940000 -0.288900
			CHANNELS 3 Zrotation Yrotation Xrotation
			JOINT Spine1
			{
				OFFSET 0.000000 1.950000 0.060000
				CHANNELS 3 Zrotation Yrotation Xrotation
				JOINT Neck
				{
					OFFSET 0.000000 0.000000 0.000000
					CHANNELS 3 Zrotation Yrotation Xrotation
					JOINT Neck1
					{
						OFFSET 0.000000 1.600000 0.340000
						CHANNELS 3 Zrotation Yrotation Xrotation
						JOINT Head
						{
							OFFSET 0.000000 1.667000 -0.240000
							CHANNELS 3 Zrotation Yrotation Xrotation
							End Site
							{
								OFFSET 0.000000 0.000000 0.000000
							}
						}
					}
				}
				JOINT LeftShoulder
				{
					OFFSET 0.000000 0.000000 0.000000
					CHANNELS 3 Zrotation Yrotation Xrotation
					JOINT LeftArm
					{
						OFFSET 2.700000 1.550000 -0.730000
						CHANNELS 3 Zrotation Yrotation Xrotation
						JOINT LeftForeArm
						{
							OFFSET 5.450000 0.000000 0.000000
							CHANNELS 3 Zrotation Yrotation Xrotation
							JOINT LeftHand
							{
								OFFSET 3.450000 0.000000 0.000000
								CHANNELS 3 Zrotation Yrotation Xrotation
								JOINT LeftHandIndex1
								{
									OFFSET 0.750000 0.000000 0.000000
									CHANNELS 3 Zrotation Yrotation Xrotation
									End Site
									{
										OFFSET 0.000000 0.000000 0.000000
									}
								}
							}
						}
					}
				}
				JOINT RightShoulder
				{
					OFFSET 0.000000 0.000000 0.000000
					CHANNELS 3 Zrotation Yrotation Xrotation
					JOINT RightArm
					{
						OFFSET -2.700000 1.550000 -0.730000
						CHANNELS 3 Zrotation Yrotation Xrotation
						JOINT RightForeArm
						{
							OFFSET -5.450000 0.000000 0.000000
							CHANNELS 3 Zrotation Yrotation Xrotation
							JOINT RightHand
							{
								OFFSET -3.450000 0.000000 0.000000
								CHANNELS 3 Zrotation Yrotation Xrotation
								JOINT RightHandIndex1
								{
									OFFSET -0.750000 0.000000 0.000000
									CHANNELS 3 Zrotation Yrotation Xrotation
									End Site
									{
										OFFSET 0.000000 0.000000 0.000000
									}
								}
							}
						}
					}
				}
			}
		}
	}
}
MOTION
Frames: 4
Frame Time: 0.016667
-0.626010 17.246930 -6.807940 -5.304627 3.987071 0.651581 -15.176912 13.504211 2.157506 3.971101 -0.420555 7.793400 0.968108 7.386611 33.438545 -0.670738 8.168297 2.023226 0.158090 -0.203090 -0.297340 18.516657 -9.145308 4.305631 -1.409568 8.118519 -44.038775 12.955504 -11.482880 35.659613 -0.833158 -5.654185 2.265394 0.115450 1.086000 0.621510 -3.994069 -3.480831 -7.480982 17.696926 -11.229462 20.203427 -10.822225 -7.543707 14.375961 2.364267 -7.500999 -10.781887 -13.904099 3.338058 20.440374 2.124120 0.531490 -29.994140 -8.620346 -2.669065 3.875455 -52.196155 -18.366844 15.039177 173.903924 -40.594715 179.263465 -4.087322 3.012867 1.241840 0.357020 0.048920 0.465790 4.353072 3.304001 7.572260 42.652958 -8.480681 -6.860681 127.721294 47.539553 65.343851 1.352120 -1.683401 -0.718480 0.907580 0.598730 -0.070790 
-0.619910 17.138780 -6.806500 -5.454515 3.839817 0.208133 -15.175079 13.459478 2.143433 4.444930 -0.259412 9.336539 1.002510 7.485614 32.933489 -0.608880 8.244552 2.002453 0.124290 -0.238460 -0.328750 18.530248 -9.085915 4.365863 -1.777114 8.389024 -44.330865 14.008765 -12.230319 36.718491 -0.891270 -6.009953 2.139766 0.085570 1.103960 0.656360 -4.012900 -3.453043 -7.508884 18.187322 -11.463319 20.447702 -11.354880 -7.670843 14.981508 2.592519 -7.500820 -11.053612 -13.903639 3.325016 20.460831 1.838320 0.572360 -29.040140 -8.307630 -2.987383 4.057142 -51.553278 -18.951111 15.519047 171.553377 -38.000577 -174.010629 -4.136881 3.024645 1.202260 0.382930 0.035980 0.452610 3.635674 3.532986 7.939286 42.253067 -8.613959 -6.449504 133.610191 47.060168 71.612834 1.346448 -1.716885 -0.690150 0.872290 0.626450 -0.054510 
-0.604440 16.937390 -6.794230 -6.234626 3.565558 0.920092 -15.164615 13.255013 2.008481 5.552673 -0.145807 10.855603 0.642132 7.671715 31.468649 -0.632854 8.292947 2.023883 0.119770 -0.230770 -0.371070 18.602815 -8.850291 4.641160 -1.922990 9.750749 -46.810015 15.630111 -13.511508 39.081330 -1.008574 -6.691945 1.929229 0.127460 1.196500 0.665060 -4.124072 -3.288692 -7.518763 20.370875 -11.827571 18.918492 -12.083237 -7.903077 15.363738 2.590032 -7.842302 -11.048544 -14.224983 3.932543 19.240043 1.586540 0.366040 -26.845420 -7.703540 -1.854225 4.025201 -51.876898 -19.474480 17.316454 169.393530 -35.033831 -165.541968 -4.207656 3.014150 1.141880 0.456400 -0.020640 0.484100 3.136833 2.450331 7.941515 39.880422 -8.760283 -4.122567 144.487635 44.998021 85.073631 1.269986 -1.804118 -0.713180 0.918370 0.646360 -0.025630 
-0.596790 16.776660 -6.785870 -7.235182 2.616423 0.903555 -15.132791 12.992842 1.935250 6.953668 0.126428 13.543129 -0.286733 8.075007 28.830690 -0.604974 8.306695 2.046605 0.076030 -0.266990 -0.421670 18.688946 -8.648124 4.915937 -2.033015 11.439096 -48.749301 17.400357 -14.874156 41.670561 -1.136780 -7.408667 1.721512 0.121190 1.239080 0.643220 -4.281038 -2.979085 -7.598329 22.552401 -12.028337 18.717793 -13.046219 -7.922236 15.791088 2.648490 -8.135690 -11.317981 -14.611159 4.464263 18.752756 1.747750 0.126840 -25.495260 -7.419141 -1.904095 4.110959 -50.579564 -19.774737 17.303421 168.206163 -33.641094 -161.374464 -4.251257 2.994259 1.089670 0.487830 -0.075350 0.474380 2.841835 2.603121 8.397432 39.263022 -8.759355 -2.981860 153.933643 43.699511 100.103438 1.259884 -1.822711 -0.725880 0.930770 0.676330 -0.008780 
